<svg xmlns="http://www.w3.org/2000/svg" width="920" height="460" font-family="system-ui,sans-serif">
<rect width="920" height="460" fill="white"/>
<text x="72" y="28" font-size="14" fill="#111">LR preview: reference 0–k, then slow tail to reference final LR (k=750)</text>
<g transform="translate(72,36)">
<line x1="0" y1="372" x2="820" y2="372" stroke="#333" stroke-width="1"/>
<line x1="0" y1="0" x2="0" y2="372" stroke="#333" stroke-width="1"/>
<line x1="245.80" y1="0" x2="245.80" y2="372" stroke="#999" stroke-dasharray="4 4"/>
<polyline fill="none" stroke="#1f77b4" stroke-width="2" points="0.00,17.67 0.33,18.02 0.66,18.37 0.98,18.73 1.31,19.08 1.64,19.43 1.97,19.79 2.29,20.14 2.62,20.49 2.95,20.85 3.28,21.20 3.61,21.55 3.93,21.91 4.26,22.26 4.59,22.61 4.92,22.97 5.24,23.32 5.57,23.67 5.90,24.03 6.23,24.38 6.55,24.73 6.88,25.09 7.21,25.44 7.54,25.79 7.87,26.15 8.19,26.50 8.52,26.85 8.85,27.21 9.18,27.56 9.50,27.91 9.83,28.27 10.16,28.62 10.49,28.97 10.82,29.33 11.14,29.68 11.47,30.03 11.80,30.39 12.13,30.74 12.45,31.09 12.78,31.45 13.11,31.80 13.44,32.15 13.76,32.51 14.09,32.86 14.42,33.21 14.75,33.57 15.08,33.92 15.40,34.27 15.73,34.63 16.06,34.98 16.39,35.33 16.71,35.69 17.04,36.04 17.37,36.39 17.70,36.75 18.03,37.10 18.35,37.45 18.68,37.81 19.01,38.16 19.34,38.51 19.66,38.87 19.99,39.22 20.32,39.57 20.65,39.93 20.97,40.28 21.30,40.63 21.63,40.99 21.96,41.34 22.29,41.69 22.61,42.05 22.94,42.40 23.27,42.75 23.60,43.11 23.92,43.46 24.25,43.81 24.58,44.17 24.91,44.52 25.24,44.87 25.56,45.23 25.89,45.58 26.22,45.93 26.55,46.29 26.87,46.64 27.20,46.99 27.53,47.35 27.86,47.70 28.18,48.05 28.51,48.41 28.84,48.76 29.17,49.11 29.50,49.47 29.82,49.82 30.15,50.17 30.48,50.53 30.81,50.88 31.13,51.23 31.46,51.59 31.79,51.94 32.12,52.29 32.45,52.65 32.77,53.00 33.10,53.35 33.43,53.71 33.76,54.06 34.08,54.41 34.41,54.77 34.74,55.12 35.07,55.47 35.39,55.83 35.72,56.18 36.05,56.53 36.38,56.89 36.71,57.24 37.03,57.59 37.36,57.95 37.69,58.30 38.02,58.65 38.34,59.01 38.67,59.36 39.00,59.71 39.33,60.07 39.66,60.42 39.98,60.77 40.31,61.13 40.64,61.48 40.97,61.83 41.29,62.19 41.62,62.54 41.95,62.89 42.28,63.25 42.61,63.60 42.93,63.95 43.26,64.31 43.59,64.66 43.92,65.01 44.24,65.37 44.57,65.72 44.90,66.07 45.23,66.43 45.55,66.78 45.88,67.13 46.21,67.49 46.54,67.84 46.87,68.19 47.19,68.55 47.52,68.90 47.85,69.25 48.18,69.61 48.50,69.96 48.83,70.31 49.16,70.67 49.49,71.02 49.82,71.37 50.14,71.73 50.47,72.08 50.80,72.43 51.13,72.79 51.45,73.14 51.78,73.49 52.11,73.85 52.44,74.20 52.76,74.55 53.09,74.91 53.42,75.26 53.75,75.61 54.08,75.97 54.40,76.32 54.73,76.67 55.06,77.03 55.39,77.38 55.71,77.73 56.04,78.09 56.37,78.44 56.70,78.79 57.03,79.15 57.35,79.50 57.68,79.85 58.01,80.21 58.34,80.56 58.66,80.91 58.99,81.27 59.32,81.62 59.65,81.97 59.97,82.33 60.30,82.68 60.63,83.03 60.96,83.39 61.29,83.74 61.61,84.09 61.94,84.45 62.27,84.80 62.60,85.15 62.92,85.51 63.25,85.86 63.58,86.21 63.91,86.57 64.24,86.92 64.56,87.27 64.89,87.63 65.22,87.98 65.55,88.33 65.87,88.69 66.20,89.04 66.53,89.39 66.86,89.75 67.18,90.10 67.51,90.45 67.84,90.81 68.17,91.16 68.50,91.51 68.82,91.87 69.15,92.22 69.48,92.57 69.81,92.93 70.13,93.28 70.46,93.63 70.79,93.99 71.12,94.34 71.45,94.69 71.77,95.05 72.10,95.40 72.43,95.75 72.76,96.11 73.08,96.46 73.41,96.81 73.74,97.17 74.07,97.52 74.39,97.87 74.72,98.23 75.05,98.58 75.38,98.93 75.71,99.29 76.03,99.64 76.36,99.99 76.69,100.35 77.02,100.70 77.34,101.05 77.67,101.41 78.00,101.76 78.33,102.11 78.66,102.47 78.98,102.82 79.31,103.17 79.64,103.53 79.97,103.88 80.29,104.23 80.62,104.59 80.95,104.94 81.28,105.29 81.61,105.65 81.93,106.00 82.26,106.35 82.59,106.71 82.92,107.06 83.24,107.41 83.57,107.77 83.90,108.12 84.23,108.47 84.55,108.83 84.88,109.18 85.21,109.53 85.54,109.89 85.87,110.24 86.19,110.59 86.52,110.95 86.85,111.30 87.18,111.65 87.50,112.01 87.83,112.36 88.16,112.71 88.49,113.07 88.82,113.42 89.14,113.77 89.47,114.13 89.80,114.48 90.13,114.83 90.45,115.19 90.78,115.54 91.11,115.89 91.44,116.25 91.76,116.60 92.09,116.95 92.42,117.31 92.75,117.66 93.08,118.01 93.40,118.37 93.73,118.72 94.06,119.07 94.39,119.43 94.71,119.78 95.04,120.13 95.37,120.49 95.70,120.84 96.03,121.19 96.35,121.55 96.68,121.90 97.01,122.25 97.34,122.61 97.66,122.96 97.99,123.31 98.32,123.67 98.65,124.02 98.97,124.37 99.30,124.73 99.63,125.08 99.96,125.43 100.29,125.79 100.61,126.14 100.94,126.49 101.27,126.85 101.60,127.20 101.92,127.55 102.25,127.91 102.58,128.26 102.91,128.61 103.24,128.97 103.56,129.32 103.89,129.67 104.22,130.03 104.55,130.38 104.87,130.73 105.20,131.09 105.53,131.44 105.86,131.79 106.18,132.15 106.51,132.50 106.84,132.85 107.17,133.21 107.50,133.56 107.82,133.91 108.15,134.27 108.48,134.62 108.81,134.97 109.13,135.33 109.46,135.68 109.79,136.03 110.12,136.39 110.45,136.74 110.77,137.09 111.10,137.45 111.43,137.80 111.76,138.15 112.08,138.51 112.41,138.86 112.74,139.21 113.07,139.57 113.39,139.92 113.72,140.27 114.05,140.63 114.38,140.98 114.71,141.33 115.03,141.69 115.36,142.04 115.69,142.39 116.02,142.75 116.34,143.10 116.67,143.45 117.00,143.81 117.33,144.16 117.66,144.51 117.98,144.87 118.31,145.22 118.64,145.57 118.97,145.93 119.29,146.28 119.62,146.63 119.95,146.99 120.28,147.34 120.61,147.69 120.93,148.05 121.26,148.40 121.59,148.75 121.92,149.11 122.24,149.46 122.57,149.81 122.90,150.17 123.23,150.52 123.55,150.87 123.88,151.23 124.21,151.58 124.54,151.93 124.87,152.29 125.19,152.64 125.52,152.99 125.85,153.35 126.18,153.70 126.50,154.05 126.83,154.41 127.16,154.76 127.49,155.11 127.82,155.47 128.14,155.82 128.47,156.17 128.80,156.53 129.13,156.88 129.45,157.23 129.78,157.59 130.11,157.94 130.44,158.29 130.76,158.65 131.09,159.00 131.42,159.35 131.75,159.71 132.08,160.06 132.40,160.41 132.73,160.77 133.06,161.12 133.39,161.47 133.71,161.83 134.04,162.18 134.37,162.53 134.70,162.89 135.03,163.24 135.35,163.59 135.68,163.95 136.01,164.30 136.34,164.65 136.66,165.01 136.99,165.36 137.32,165.71 137.65,166.07 137.97,166.42 138.30,166.77 138.63,167.13 138.96,167.48 139.29,167.83 139.61,168.19 139.94,168.54 140.27,168.89 140.60,169.25 140.92,169.60 141.25,169.95 141.58,170.31 141.91,170.66 142.24,171.01 142.56,171.37 142.89,171.72 143.22,172.07 143.55,172.43 143.87,172.78 144.20,173.13 144.53,173.49 144.86,173.84 145.18,174.19 145.51,174.55 145.84,174.90 146.17,175.25 146.50,175.61 146.82,175.96 147.15,176.31 147.48,176.67 147.81,177.02 148.13,177.37 148.46,177.73 148.79,178.08 149.12,178.43 149.45,178.79 149.77,179.14 150.10,179.49 150.43,179.85 150.76,180.20 151.08,180.55 151.41,180.91 151.74,181.26 152.07,181.61 152.39,181.97 152.72,182.32 153.05,182.67 153.38,183.03 153.71,183.38 154.03,183.73 154.36,184.09 154.69,184.44 155.02,184.79 155.34,185.15 155.67,185.50 156.00,185.85 156.33,186.21 156.66,186.56 156.98,186.91 157.31,187.27 157.64,187.62 157.97,187.97 158.29,188.33 158.62,188.68 158.95,189.03 159.28,189.39 159.61,189.74 159.93,190.09 160.26,190.45 160.59,190.80 160.92,191.15 161.24,191.51 161.57,191.86 161.90,192.21 162.23,192.57 162.55,192.92 162.88,193.27 163.21,193.63 163.54,193.98 163.87,194.33 164.19,194.69 164.52,195.04 164.85,195.39 165.18,195.75 165.50,196.10 165.83,196.45 166.16,196.81 166.49,197.16 166.82,197.51 167.14,197.87 167.47,198.22 167.80,198.57 168.13,198.93 168.45,199.28 168.78,199.63 169.11,199.99 169.44,200.34 169.76,200.69 170.09,201.05 170.42,201.40 170.75,201.75 171.08,202.11 171.40,202.46 171.73,202.81 172.06,203.17 172.39,203.52 172.71,203.87 173.04,204.23 173.37,204.58 173.70,204.93 174.03,205.29 174.35,205.64 174.68,205.99 175.01,206.35 175.34,206.70 175.66,207.05 175.99,207.41 176.32,207.76 176.65,208.11 176.97,208.47 177.30,208.82 177.63,209.17 177.96,209.53 178.29,209.88 178.61,210.23 178.94,210.59 179.27,210.94 179.60,211.29 179.92,211.65 180.25,212.00 180.58,212.35 180.91,212.71 181.24,213.06 181.56,213.41 181.89,213.77 182.22,214.12 182.55,214.47 182.87,214.83 183.20,215.18 183.53,215.53 183.86,215.89 184.18,216.24 184.51,216.59 184.84,216.95 185.17,217.30 185.50,217.65 185.82,218.01 186.15,218.36 186.48,218.71 186.81,219.07 187.13,219.42 187.46,219.77 187.79,220.13 188.12,220.48 188.45,220.83 188.77,221.19 189.10,221.54 189.43,221.89 189.76,222.25 190.08,222.60 190.41,222.95 190.74,223.31 191.07,223.66 191.39,224.01 191.72,224.37 192.05,224.72 192.38,225.07 192.71,225.43 193.03,225.78 193.36,226.13 193.69,226.49 194.02,226.84 194.34,227.19 194.67,227.55 195.00,227.90 195.33,228.25 195.66,228.61 195.98,228.96 196.31,229.31 196.64,229.67 196.97,230.02 197.29,230.37 197.62,230.73 197.95,231.08 198.28,231.43 198.61,231.79 198.93,232.14 199.26,232.49 199.59,232.85 199.92,233.20 200.24,233.55 200.57,233.91 200.90,234.26 201.23,234.61 201.55,234.97 201.88,235.32 202.21,235.67 202.54,236.03 202.87,236.38 203.19,236.73 203.52,237.09 203.85,237.44 204.18,237.79 204.50,238.15 204.83,238.50 205.16,238.85 205.49,239.21 205.82,239.56 206.14,239.91 206.47,240.27 206.80,240.62 207.13,240.97 207.45,241.33 207.78,241.68 208.11,242.03 208.44,242.39 208.76,242.74 209.09,243.09 209.42,243.45 209.75,243.80 210.08,244.15 210.40,244.51 210.73,244.86 211.06,245.21 211.39,245.57 211.71,245.92 212.04,246.27 212.37,246.63 212.70,246.98 213.03,247.33 213.35,247.69 213.68,248.04 214.01,248.39 214.34,248.75 214.66,249.10 214.99,249.45 215.32,249.81 215.65,250.16 215.97,250.51 216.30,250.87 216.63,251.22 216.96,251.57 217.29,251.93 217.61,252.28 217.94,252.63 218.27,252.99 218.60,253.34 218.92,253.69 219.25,254.05 219.58,254.40 219.91,254.75 220.24,255.11 220.56,255.46 220.89,255.81 221.22,256.17 221.55,256.52 221.87,256.87 222.20,257.23 222.53,257.58 222.86,257.93 223.18,258.29 223.51,258.64 223.84,258.99 224.17,259.35 224.50,259.70 224.82,260.05 225.15,260.41 225.48,260.76 225.81,261.11 226.13,261.47 226.46,261.82 226.79,262.17 227.12,262.53 227.45,262.88 227.77,263.23 228.10,263.59 228.43,263.94 228.76,264.29 229.08,264.65 229.41,265.00 229.74,265.35 230.07,265.71 230.39,266.06 230.72,266.41 231.05,266.77 231.38,267.12 231.71,267.47 232.03,267.83 232.36,268.18 232.69,268.53 233.02,268.89 233.34,269.24 233.67,269.59 234.00,269.95 234.33,270.30 234.66,270.65 234.98,271.01 235.31,271.36 235.64,271.71 235.97,272.07 236.29,272.42 236.62,272.77 236.95,273.13 237.28,273.48 237.61,273.83 237.93,274.19 238.26,274.54 238.59,274.89 238.92,275.25 239.24,275.60 239.57,275.95 239.90,276.31 240.23,276.66 240.55,277.01 240.88,277.37 241.21,277.72 241.54,278.07 241.87,278.43 242.19,278.78 242.52,279.13 242.85,279.49 243.18,279.84 243.50,280.19 243.83,280.55 244.16,280.90 244.49,281.25 244.82,281.61 245.14,281.96 245.47,282.31 245.80,282.67 246.13,283.02 246.45,283.37 246.78,283.73 247.11,284.08 247.44,284.43 247.76,284.79 248.09,285.14 248.42,285.49 248.75,285.85 249.08,286.20 249.40,286.55 249.73,286.91 250.06,287.26 250.39,287.61 250.71,287.97 251.04,288.32 251.37,288.67 251.70,289.03 252.03,289.38 252.35,289.73 252.68,290.09 253.01,290.44 253.34,290.79 253.66,291.15 253.99,291.50 254.32,291.85 254.65,292.21 254.97,292.56 255.30,292.91 255.63,293.27 255.96,293.62 256.29,293.97 256.61,294.33 256.94,294.68 257.27,295.03 257.60,295.39 257.92,295.74 258.25,296.09 258.58,296.45 258.91,296.80 259.24,297.15 259.56,297.51 259.89,297.86 260.22,298.21 260.55,298.57 260.87,298.92 261.20,299.27 261.53,299.63 261.86,299.98 262.18,300.33 262.51,300.69 262.84,301.04 263.17,301.39 263.50,301.75 263.82,302.10 264.15,302.45 264.48,302.81 264.81,303.16 265.13,303.51 265.46,303.87 265.79,304.22 266.12,304.57 266.45,304.93 266.77,305.28 267.10,305.63 267.43,305.99 267.76,306.34 268.08,306.69 268.41,307.05 268.74,307.40 269.07,307.75 269.39,308.11 269.72,308.46 270.05,308.81 270.38,309.17 270.71,309.52 271.03,309.87 271.36,310.23 271.69,310.58 272.02,310.93 272.34,311.29 272.67,311.64 273.00,311.99 273.33,312.35 273.66,312.70 273.98,313.05 274.31,313.41 274.64,313.76 274.97,314.11 275.29,314.47 275.62,314.82 275.95,315.17 276.28,315.53 276.61,315.88 276.93,316.23 277.26,316.59 277.59,316.94 277.92,317.29 278.24,317.65 278.57,318.00 278.90,318.35 279.23,318.71 279.55,319.06 279.88,319.41 280.21,319.77 280.54,320.12 280.87,320.47 281.19,320.83 281.52,321.18 281.85,321.53 282.18,321.89 282.50,322.24 282.83,322.59 283.16,322.95 283.49,323.30 283.82,323.65 284.14,324.01 284.47,324.36 284.80,324.71 285.13,325.07 285.45,325.42 285.78,325.77 286.11,326.13 286.44,326.48 286.76,326.83 287.09,327.19 287.42,327.54 287.75,327.89 288.08,328.25 288.40,328.60 288.73,328.95 289.06,329.31 289.39,329.66 289.71,330.01 290.04,330.37 290.37,330.72 290.70,331.07 291.03,331.43 291.35,331.78 291.68,332.13 292.01,332.49 292.34,332.84 292.66,333.19 292.99,333.55 293.32,333.90 293.65,334.25 293.97,334.61 294.30,334.96 294.63,335.31 294.96,335.67 295.29,336.02 295.61,336.37 295.94,336.73 296.27,337.08 296.60,337.43 296.92,337.79 297.25,338.14 297.58,338.49 297.91,338.85 298.24,339.20 298.56,339.55 298.89,339.91 299.22,340.26 299.55,340.61 299.87,340.97 300.20,341.32 300.53,341.67 300.86,342.03 301.18,342.38 301.51,342.73 301.84,343.09 302.17,343.44 302.50,343.79 302.82,344.15 303.15,344.50 303.48,344.85 303.81,345.21 304.13,345.56 304.46,345.91 304.79,346.27 305.12,346.62 305.45,346.97 305.77,347.33 306.10,347.68 306.43,348.03 306.76,348.39 307.08,348.74 307.41,349.09 307.74,349.45 308.07,349.80 308.39,350.15 308.72,350.51 309.05,350.86 309.38,351.21 309.71,351.57 310.03,351.92 310.36,352.27 310.69,352.63 311.02,352.98 311.34,353.33 311.67,353.69 312.00,354.04 312.33,354.39 312.66,354.75 312.98,355.10 313.31,355.45 313.64,355.81 313.97,356.16 314.29,356.51 314.62,356.87 314.95,357.22 315.28,357.57 315.61,357.93 315.93,358.28 316.26,358.63 316.59,358.99 316.92,359.34 317.24,359.69 317.57,360.05 317.90,360.40 318.23,360.75 318.55,361.11 318.88,361.46 319.21,361.81 319.54,362.17 319.87,362.52 320.19,362.87 320.52,363.23 320.85,363.58 321.18,363.93 321.50,364.29 321.83,364.64 322.16,364.99 322.49,365.35 322.82,365.70 323.14,366.05 323.47,366.41 323.80,366.76 324.13,367.11 324.45,367.47 324.78,367.82 325.11,368.17 325.44,368.53 325.76,368.88 326.09,369.23 326.42,369.59 326.75,369.94 327.08,370.29 327.40,370.65"/>
<polyline fill="none" stroke="#1f77b4" stroke-dasharray="6 4" stroke-width="1.4" points="0.00,17.67 0.33,17.98 0.66,18.30 0.98,18.62 1.31,18.94 1.64,19.26 1.97,19.58 2.29,19.89 2.62,20.21 2.95,20.53 3.28,20.85 3.61,21.17 3.93,21.48 4.26,21.80 4.59,22.12 4.92,22.44 5.24,22.76 5.57,23.08 5.90,23.40 6.23,23.71 6.55,24.03 6.88,24.35 7.21,24.67 7.54,24.99 7.87,25.31 8.19,25.63 8.52,25.95 8.85,26.26 9.18,26.58 9.50,26.90 9.83,27.22 10.16,27.54 10.49,27.86 10.82,28.18 11.14,28.50 11.47,28.82 11.80,29.14 12.13,29.45 12.45,29.77 12.78,30.09 13.11,30.41 13.44,30.73 13.76,31.05 14.09,31.37 14.42,31.69 14.75,32.01 15.08,32.33 15.40,32.65 15.73,32.97 16.06,33.29 16.39,33.61 16.71,33.93 17.04,34.25 17.37,34.57 17.70,34.89 18.03,35.21 18.35,35.53 18.68,35.85 19.01,36.17 19.34,36.49 19.66,36.81 19.99,37.13 20.32,37.45 20.65,37.77 20.97,38.09 21.30,38.41 21.63,38.73 21.96,39.05 22.29,39.37 22.61,39.69 22.94,40.01 23.27,40.33 23.60,40.65 23.92,40.97 24.25,41.29 24.58,41.61 24.91,41.93 25.24,42.25 25.56,42.57 25.89,42.89 26.22,43.21 26.55,43.53 26.87,43.85 27.20,44.17 27.53,44.49 27.86,44.82 28.18,45.14 28.51,45.46 28.84,45.78 29.17,46.10 29.50,46.42 29.82,46.74 30.15,47.06 30.48,47.38 30.81,47.70 31.13,48.03 31.46,48.35 31.79,48.67 32.12,48.99 32.45,49.31 32.77,49.63 33.10,49.95 33.43,50.27 33.76,50.60 34.08,50.92 34.41,51.24 34.74,51.56 35.07,51.88 35.39,52.20 35.72,52.53 36.05,52.85 36.38,53.17 36.71,53.49 37.03,53.81 37.36,54.13 37.69,54.46 38.02,54.78 38.34,55.10 38.67,55.42 39.00,55.74 39.33,56.07 39.66,56.39 39.98,56.71 40.31,57.03 40.64,57.36 40.97,57.68 41.29,58.00 41.62,58.32 41.95,58.64 42.28,58.97 42.61,59.29 42.93,59.61 43.26,59.93 43.59,60.26 43.92,60.58 44.24,60.90 44.57,61.22 44.90,61.55 45.23,61.87 45.55,62.19 45.88,62.52 46.21,62.84 46.54,63.16 46.87,63.48 47.19,63.81 47.52,64.13 47.85,64.45 48.18,64.78 48.50,65.10 48.83,65.42 49.16,65.75 49.49,66.07 49.82,66.39 50.14,66.72 50.47,67.04 50.80,67.36 51.13,67.69 51.45,68.01 51.78,68.33 52.11,68.66 52.44,68.98 52.76,69.30 53.09,69.63 53.42,69.95 53.75,70.27 54.08,70.60 54.40,70.92 54.73,71.25 55.06,71.57 55.39,71.89 55.71,72.22 56.04,72.54 56.37,72.87 56.70,73.19 57.03,73.51 57.35,73.84 57.68,74.16 58.01,74.49 58.34,74.81 58.66,75.14 58.99,75.46 59.32,75.78 59.65,76.11 59.97,76.43 60.30,76.76 60.63,77.08 60.96,77.41 61.29,77.73 61.61,78.06 61.94,78.38 62.27,78.71 62.60,79.03 62.92,79.35 63.25,79.68 63.58,80.00 63.91,80.33 64.24,80.65 64.56,80.98 64.89,81.30 65.22,81.63 65.55,81.95 65.87,82.28 66.20,82.61 66.53,82.93 66.86,83.26 67.18,83.58 67.51,83.91 67.84,84.23 68.17,84.56 68.50,84.88 68.82,85.21 69.15,85.53 69.48,85.86 69.81,86.19 70.13,86.51 70.46,86.84 70.79,87.16 71.12,87.49 71.45,87.81 71.77,88.14 72.10,88.47 72.43,88.79 72.76,89.12 73.08,89.44 73.41,89.77 73.74,90.10 74.07,90.42 74.39,90.75 74.72,91.08 75.05,91.40 75.38,91.73 75.71,92.06 76.03,92.38 76.36,92.71 76.69,93.03 77.02,93.36 77.34,93.69 77.67,94.01 78.00,94.34 78.33,94.67 78.66,95.00 78.98,95.32 79.31,95.65 79.64,95.98 79.97,96.30 80.29,96.63 80.62,96.96 80.95,97.28 81.28,97.61 81.61,97.94 81.93,98.27 82.26,98.59 82.59,98.92 82.92,99.25 83.24,99.58 83.57,99.90 83.90,100.23 84.23,100.56 84.55,100.89 84.88,101.21 85.21,101.54 85.54,101.87 85.87,102.20 86.19,102.52 86.52,102.85 86.85,103.18 87.18,103.51 87.50,103.84 87.83,104.16 88.16,104.49 88.49,104.82 88.82,105.15 89.14,105.48 89.47,105.80 89.80,106.13 90.13,106.46 90.45,106.79 90.78,107.12 91.11,107.45 91.44,107.78 91.76,108.10 92.09,108.43 92.42,108.76 92.75,109.09 93.08,109.42 93.40,109.75 93.73,110.08 94.06,110.41 94.39,110.73 94.71,111.06 95.04,111.39 95.37,111.72 95.70,112.05 96.03,112.38 96.35,112.71 96.68,113.04 97.01,113.37 97.34,113.70 97.66,114.03 97.99,114.36 98.32,114.69 98.65,115.02 98.97,115.34 99.30,115.67 99.63,116.00 99.96,116.33 100.29,116.66 100.61,116.99 100.94,117.32 101.27,117.65 101.60,117.98 101.92,118.31 102.25,118.64 102.58,118.97 102.91,119.30 103.24,119.63 103.56,119.96 103.89,120.29 104.22,120.63 104.55,120.96 104.87,121.29 105.20,121.62 105.53,121.95 105.86,122.28 106.18,122.61 106.51,122.94 106.84,123.27 107.17,123.60 107.50,123.93 107.82,124.26 108.15,124.59 108.48,124.92 108.81,125.26 109.13,125.59 109.46,125.92 109.79,126.25 110.12,126.58 110.45,126.91 110.77,127.24 111.10,127.57 111.43,127.91 111.76,128.24 112.08,128.57 112.41,128.90 112.74,129.23 113.07,129.56 113.39,129.90 113.72,130.23 114.05,130.56 114.38,130.89 114.71,131.22 115.03,131.56 115.36,131.89 115.69,132.22 116.02,132.55 116.34,132.88 116.67,133.22 117.00,133.55 117.33,133.88 117.66,134.21 117.98,134.55 118.31,134.88 118.64,135.21 118.97,135.54 119.29,135.88 119.62,136.21 119.95,136.54 120.28,136.87 120.61,137.21 120.93,137.54 121.26,137.87 121.59,138.21 121.92,138.54 122.24,138.87 122.57,139.21 122.90,139.54 123.23,139.87 123.55,140.21 123.88,140.54 124.21,140.87 124.54,141.21 124.87,141.54 125.19,141.87 125.52,142.21 125.85,142.54 126.18,142.88 126.50,143.21 126.83,143.54 127.16,143.88 127.49,144.21 127.82,144.55 128.14,144.88 128.47,145.21 128.80,145.55 129.13,145.88 129.45,146.22 129.78,146.55 130.11,146.89 130.44,147.22 130.76,147.55 131.09,147.89 131.42,148.22 131.75,148.56 132.08,148.89 132.40,149.23 132.73,149.56 133.06,149.90 133.39,150.23 133.71,150.57 134.04,150.90 134.37,151.24 134.70,151.57 135.03,151.91 135.35,152.24 135.68,152.58 136.01,152.92 136.34,153.25 136.66,153.59 136.99,153.92 137.32,154.26 137.65,154.59 137.97,154.93 138.30,155.27 138.63,155.60 138.96,155.94 139.29,156.27 139.61,156.61 139.94,156.95 140.27,157.28 140.60,157.62 140.92,157.95 141.25,158.29 141.58,158.63 141.91,158.96 142.24,159.30 142.56,159.64 142.89,159.97 143.22,160.31 143.55,160.65 143.87,160.98 144.20,161.32 144.53,161.66 144.86,162.00 145.18,162.33 145.51,162.67 145.84,163.01 146.17,163.34 146.50,163.68 146.82,164.02 147.15,164.36 147.48,164.69 147.81,165.03 148.13,165.37 148.46,165.71 148.79,166.05 149.12,166.38 149.45,166.72 149.77,167.06 150.10,167.40 150.43,167.74 150.76,168.07 151.08,168.41 151.41,168.75 151.74,169.09 152.07,169.43 152.39,169.77 152.72,170.10 153.05,170.44 153.38,170.78 153.71,171.12 154.03,171.46 154.36,171.80 154.69,172.14 155.02,172.48 155.34,172.81 155.67,173.15 156.00,173.49 156.33,173.83 156.66,174.17 156.98,174.51 157.31,174.85 157.64,175.19 157.97,175.53 158.29,175.87 158.62,176.21 158.95,176.55 159.28,176.89 159.61,177.23 159.93,177.57 160.26,177.91 160.59,178.25 160.92,178.59 161.24,178.93 161.57,179.27 161.90,179.61 162.23,179.95 162.55,180.29 162.88,180.63 163.21,180.97 163.54,181.31 163.87,181.65 164.19,181.99 164.52,182.34 164.85,182.68 165.18,183.02 165.50,183.36 165.83,183.70 166.16,184.04 166.49,184.38 166.82,184.72 167.14,185.07 167.47,185.41 167.80,185.75 168.13,186.09 168.45,186.43 168.78,186.77 169.11,187.12 169.44,187.46 169.76,187.80 170.09,188.14 170.42,188.48 170.75,188.83 171.08,189.17 171.40,189.51 171.73,189.85 172.06,190.20 172.39,190.54 172.71,190.88 173.04,191.22 173.37,191.57 173.70,191.91 174.03,192.25 174.35,192.60 174.68,192.94 175.01,193.28 175.34,193.63 175.66,193.97 175.99,194.31 176.32,194.66 176.65,195.00 176.97,195.34 177.30,195.69 177.63,196.03 177.96,196.37 178.29,196.72 178.61,197.06 178.94,197.41 179.27,197.75 179.60,198.09 179.92,198.44 180.25,198.78 180.58,199.13 180.91,199.47 181.24,199.82 181.56,200.16 181.89,200.51 182.22,200.85 182.55,201.20 182.87,201.54 183.20,201.89 183.53,202.23 183.86,202.58 184.18,202.92 184.51,203.27 184.84,203.61 185.17,203.96 185.50,204.30 185.82,204.65 186.15,205.00 186.48,205.34 186.81,205.69 187.13,206.03 187.46,206.38 187.79,206.73 188.12,207.07 188.45,207.42 188.77,207.76 189.10,208.11 189.43,208.46 189.76,208.80 190.08,209.15 190.41,209.50 190.74,209.85 191.07,210.19 191.39,210.54 191.72,210.89 192.05,211.23 192.38,211.58 192.71,211.93 193.03,212.28 193.36,212.62 193.69,212.97 194.02,213.32 194.34,213.67 194.67,214.02 195.00,214.36 195.33,214.71 195.66,215.06 195.98,215.41 196.31,215.76 196.64,216.10 196.97,216.45 197.29,216.80 197.62,217.15 197.95,217.50 198.28,217.85 198.61,218.20 198.93,218.55 199.26,218.90 199.59,219.24 199.92,219.59 200.24,219.94 200.57,220.29 200.90,220.64 201.23,220.99 201.55,221.34 201.88,221.69 202.21,222.04 202.54,222.39 202.87,222.74 203.19,223.09 203.52,223.44 203.85,223.79 204.18,224.14 204.50,224.49 204.83,224.85 205.16,225.20 205.49,225.55 205.82,225.90 206.14,226.25 206.47,226.60 206.80,226.95 207.13,227.30 207.45,227.65 207.78,228.01 208.11,228.36 208.44,228.71 208.76,229.06 209.09,229.41 209.42,229.77 209.75,230.12 210.08,230.47 210.40,230.82 210.73,231.17 211.06,231.53 211.39,231.88 211.71,232.23 212.04,232.59 212.37,232.94 212.70,233.29 213.03,233.64 213.35,234.00 213.68,234.35 214.01,234.70 214.34,235.06 214.66,235.41 214.99,235.77 215.32,236.12 215.65,236.47 215.97,236.83 216.30,237.18 216.63,237.54 216.96,237.89 217.29,238.24 217.61,238.60 217.94,238.95 218.27,239.31 218.60,239.66 218.92,240.02 219.25,240.37 219.58,240.73 219.91,241.08 220.24,241.44 220.56,241.80 220.89,242.15 221.22,242.51 221.55,242.86 221.87,243.22 222.20,243.57 222.53,243.93 222.86,244.29 223.18,244.64 223.51,245.00 223.84,245.36 224.17,245.71 224.50,246.07 224.82,246.43 225.15,246.78 225.48,247.14 225.81,247.50 226.13,247.86 226.46,248.21 226.79,248.57 227.12,248.93 227.45,249.29 227.77,249.65 228.10,250.00 228.43,250.36 228.76,250.72 229.08,251.08 229.41,251.44 229.74,251.80 230.07,252.16 230.39,252.51 230.72,252.87 231.05,253.23 231.38,253.59 231.71,253.95 232.03,254.31 232.36,254.67 232.69,255.03 233.02,255.39 233.34,255.75 233.67,256.11 234.00,256.47 234.33,256.83 234.66,257.19 234.98,257.55 235.31,257.91 235.64,258.27 235.97,258.64 236.29,259.00 236.62,259.36 236.95,259.72 237.28,260.08 237.61,260.44 237.93,260.81 238.26,261.17 238.59,261.53 238.92,261.89 239.24,262.25 239.57,262.62 239.90,262.98 240.23,263.34 240.55,263.71 240.88,264.07 241.21,264.43 241.54,264.80 241.87,265.16 242.19,265.52 242.52,265.89 242.85,266.25 243.18,266.61 243.50,266.98 243.83,267.34 244.16,267.71 244.49,268.07 244.82,268.44 245.14,268.80 245.47,269.17 245.80,269.53 246.13,269.90 246.45,270.26 246.78,270.63 247.11,270.99 247.44,271.36 247.76,271.73 248.09,272.09 248.42,272.46 248.75,272.83 249.08,273.19 249.40,273.56 249.73,273.93 250.06,274.29 250.39,274.66 250.71,275.03 251.04,275.40 251.37,275.76 251.70,276.13 252.03,276.50 252.35,276.87 252.68,277.24 253.01,277.60 253.34,277.97 253.66,278.34 253.99,278.71 254.32,279.08 254.65,279.45 254.97,279.82 255.30,280.19 255.63,280.56 255.96,280.93 256.29,281.30 256.61,281.67 256.94,282.04 257.27,282.41 257.60,282.78 257.92,283.15 258.25,283.52 258.58,283.90 258.91,284.27 259.24,284.64 259.56,285.01 259.89,285.38 260.22,285.76 260.55,286.13 260.87,286.50 261.20,286.87 261.53,287.25 261.86,287.62 262.18,287.99 262.51,288.37 262.84,288.74 263.17,289.12 263.50,289.49 263.82,289.86 264.15,290.24 264.48,290.61 264.81,290.99 265.13,291.36 265.46,291.74 265.79,292.11 266.12,292.49 266.45,292.87 266.77,293.24 267.10,293.62 267.43,293.99 267.76,294.37 268.08,294.75 268.41,295.13 268.74,295.50 269.07,295.88 269.39,296.26 269.72,296.64 270.05,297.01 270.38,297.39 270.71,297.77 271.03,298.15 271.36,298.53 271.69,298.91 272.02,299.29 272.34,299.67 272.67,300.05 273.00,300.43 273.33,300.81 273.66,301.19 273.98,301.57 274.31,301.95 274.64,302.33 274.97,302.71 275.29,303.10 275.62,303.48 275.95,303.86 276.28,304.24 276.61,304.63 276.93,305.01 277.26,305.39 277.59,305.78 277.92,306.16 278.24,306.54 278.57,306.93 278.90,307.31 279.23,307.70 279.55,308.08 279.88,308.47 280.21,308.85 280.54,309.24 280.87,309.63 281.19,310.01 281.52,310.40 281.85,310.79 282.18,311.17 282.50,311.56 282.83,311.95 283.16,312.34 283.49,312.72 283.82,313.11 284.14,313.50 284.47,313.89 284.80,314.28 285.13,314.67 285.45,315.06 285.78,315.45 286.11,315.84 286.44,316.23 286.76,316.62 287.09,317.02 287.42,317.41 287.75,317.80 288.08,318.19 288.40,318.59 288.73,318.98 289.06,319.37 289.39,319.77 289.71,320.16 290.04,320.56 290.37,320.95 290.70,321.35 291.03,321.74 291.35,322.14 291.68,322.53 292.01,322.93 292.34,323.33 292.66,323.73 292.99,324.12 293.32,324.52 293.65,324.92 293.97,325.32 294.30,325.72 294.63,326.12 294.96,326.52 295.29,326.92 295.61,327.32 295.94,327.72 296.27,328.12 296.60,328.52 296.92,328.93 297.25,329.33 297.58,329.73 297.91,330.14 298.24,330.54 298.56,330.95 298.89,331.35 299.22,331.76 299.55,332.16 299.87,332.57 300.20,332.98 300.53,333.39 300.86,333.79 301.18,334.20 301.51,334.61 301.84,335.02 302.17,335.43 302.50,335.84 302.82,336.25 303.15,336.66 303.48,337.08 303.81,337.49 304.13,337.90 304.46,338.32 304.79,338.73 305.12,339.15 305.45,339.56 305.77,339.98 306.10,340.40 306.43,340.81 306.76,341.23 307.08,341.65 307.41,342.07 307.74,342.49 308.07,342.91 308.39,343.33 308.72,343.76 309.05,344.18 309.38,344.60 309.71,345.03 310.03,345.45 310.36,345.88 310.69,346.31 311.02,346.73 311.34,347.16 311.67,347.59 312.00,348.02 312.33,348.45 312.66,348.89 312.98,349.32 313.31,349.75 313.64,350.19 313.97,350.62 314.29,351.06 314.62,351.50 314.95,351.94 315.28,352.38 315.61,352.82 315.93,353.26 316.26,353.71 316.59,354.15 316.92,354.60 317.24,355.05 317.57,355.50 317.90,355.95 318.23,356.40 318.55,356.85 318.88,357.31 319.21,357.77 319.54,358.23 319.87,358.69 320.19,359.15 320.52,359.61 320.85,360.08 321.18,360.55 321.50,361.02 321.83,361.50 322.16,361.97 322.49,362.45 322.82,362.93 323.14,363.42 323.47,363.91 323.80,364.40 324.13,364.90 324.45,365.40 324.78,365.91 325.11,366.42 325.44,366.94 325.76,367.46 326.09,368.00 326.42,368.55 326.75,369.11 327.08,369.68 327.40,370.30"/>
<polyline fill="none" stroke="#d62728" stroke-width="2.5" points="0.00,17.67 0.33,18.02 0.66,18.37 0.98,18.73 1.31,19.08 1.64,19.43 1.97,19.79 2.29,20.14 2.62,20.49 2.95,20.85 3.28,21.20 3.61,21.55 3.93,21.91 4.26,22.26 4.59,22.61 4.92,22.97 5.24,23.32 5.57,23.67 5.90,24.03 6.23,24.38 6.55,24.73 6.88,25.09 7.21,25.44 7.54,25.79 7.87,26.15 8.19,26.50 8.52,26.85 8.85,27.21 9.18,27.56 9.50,27.91 9.83,28.27 10.16,28.62 10.49,28.97 10.82,29.33 11.14,29.68 11.47,30.03 11.80,30.39 12.13,30.74 12.45,31.09 12.78,31.45 13.11,31.80 13.44,32.15 13.76,32.51 14.09,32.86 14.42,33.21 14.75,33.57 15.08,33.92 15.40,34.27 15.73,34.63 16.06,34.98 16.39,35.33 16.71,35.69 17.04,36.04 17.37,36.39 17.70,36.75 18.03,37.10 18.35,37.45 18.68,37.81 19.01,38.16 19.34,38.51 19.66,38.87 19.99,39.22 20.32,39.57 20.65,39.93 20.97,40.28 21.30,40.63 21.63,40.99 21.96,41.34 22.29,41.69 22.61,42.05 22.94,42.40 23.27,42.75 23.60,43.11 23.92,43.46 24.25,43.81 24.58,44.17 24.91,44.52 25.24,44.87 25.56,45.23 25.89,45.58 26.22,45.93 26.55,46.29 26.87,46.64 27.20,46.99 27.53,47.35 27.86,47.70 28.18,48.05 28.51,48.41 28.84,48.76 29.17,49.11 29.50,49.47 29.82,49.82 30.15,50.17 30.48,50.53 30.81,50.88 31.13,51.23 31.46,51.59 31.79,51.94 32.12,52.29 32.45,52.65 32.77,53.00 33.10,53.35 33.43,53.71 33.76,54.06 34.08,54.41 34.41,54.77 34.74,55.12 35.07,55.47 35.39,55.83 35.72,56.18 36.05,56.53 36.38,56.89 36.71,57.24 37.03,57.59 37.36,57.95 37.69,58.30 38.02,58.65 38.34,59.01 38.67,59.36 39.00,59.71 39.33,60.07 39.66,60.42 39.98,60.77 40.31,61.13 40.64,61.48 40.97,61.83 41.29,62.19 41.62,62.54 41.95,62.89 42.28,63.25 42.61,63.60 42.93,63.95 43.26,64.31 43.59,64.66 43.92,65.01 44.24,65.37 44.57,65.72 44.90,66.07 45.23,66.43 45.55,66.78 45.88,67.13 46.21,67.49 46.54,67.84 46.87,68.19 47.19,68.55 47.52,68.90 47.85,69.25 48.18,69.61 48.50,69.96 48.83,70.31 49.16,70.67 49.49,71.02 49.82,71.37 50.14,71.73 50.47,72.08 50.80,72.43 51.13,72.79 51.45,73.14 51.78,73.49 52.11,73.85 52.44,74.20 52.76,74.55 53.09,74.91 53.42,75.26 53.75,75.61 54.08,75.97 54.40,76.32 54.73,76.67 55.06,77.03 55.39,77.38 55.71,77.73 56.04,78.09 56.37,78.44 56.70,78.79 57.03,79.15 57.35,79.50 57.68,79.85 58.01,80.21 58.34,80.56 58.66,80.91 58.99,81.27 59.32,81.62 59.65,81.97 59.97,82.33 60.30,82.68 60.63,83.03 60.96,83.39 61.29,83.74 61.61,84.09 61.94,84.45 62.27,84.80 62.60,85.15 62.92,85.51 63.25,85.86 63.58,86.21 63.91,86.57 64.24,86.92 64.56,87.27 64.89,87.63 65.22,87.98 65.55,88.33 65.87,88.69 66.20,89.04 66.53,89.39 66.86,89.75 67.18,90.10 67.51,90.45 67.84,90.81 68.17,91.16 68.50,91.51 68.82,91.87 69.15,92.22 69.48,92.57 69.81,92.93 70.13,93.28 70.46,93.63 70.79,93.99 71.12,94.34 71.45,94.69 71.77,95.05 72.10,95.40 72.43,95.75 72.76,96.11 73.08,96.46 73.41,96.81 73.74,97.17 74.07,97.52 74.39,97.87 74.72,98.23 75.05,98.58 75.38,98.93 75.71,99.29 76.03,99.64 76.36,99.99 76.69,100.35 77.02,100.70 77.34,101.05 77.67,101.41 78.00,101.76 78.33,102.11 78.66,102.47 78.98,102.82 79.31,103.17 79.64,103.53 79.97,103.88 80.29,104.23 80.62,104.59 80.95,104.94 81.28,105.29 81.61,105.65 81.93,106.00 82.26,106.35 82.59,106.71 82.92,107.06 83.24,107.41 83.57,107.77 83.90,108.12 84.23,108.47 84.55,108.83 84.88,109.18 85.21,109.53 85.54,109.89 85.87,110.24 86.19,110.59 86.52,110.95 86.85,111.30 87.18,111.65 87.50,112.01 87.83,112.36 88.16,112.71 88.49,113.07 88.82,113.42 89.14,113.77 89.47,114.13 89.80,114.48 90.13,114.83 90.45,115.19 90.78,115.54 91.11,115.89 91.44,116.25 91.76,116.60 92.09,116.95 92.42,117.31 92.75,117.66 93.08,118.01 93.40,118.37 93.73,118.72 94.06,119.07 94.39,119.43 94.71,119.78 95.04,120.13 95.37,120.49 95.70,120.84 96.03,121.19 96.35,121.55 96.68,121.90 97.01,122.25 97.34,122.61 97.66,122.96 97.99,123.31 98.32,123.67 98.65,124.02 98.97,124.37 99.30,124.73 99.63,125.08 99.96,125.43 100.29,125.79 100.61,126.14 100.94,126.49 101.27,126.85 101.60,127.20 101.92,127.55 102.25,127.91 102.58,128.26 102.91,128.61 103.24,128.97 103.56,129.32 103.89,129.67 104.22,130.03 104.55,130.38 104.87,130.73 105.20,131.09 105.53,131.44 105.86,131.79 106.18,132.15 106.51,132.50 106.84,132.85 107.17,133.21 107.50,133.56 107.82,133.91 108.15,134.27 108.48,134.62 108.81,134.97 109.13,135.33 109.46,135.68 109.79,136.03 110.12,136.39 110.45,136.74 110.77,137.09 111.10,137.45 111.43,137.80 111.76,138.15 112.08,138.51 112.41,138.86 112.74,139.21 113.07,139.57 113.39,139.92 113.72,140.27 114.05,140.63 114.38,140.98 114.71,141.33 115.03,141.69 115.36,142.04 115.69,142.39 116.02,142.75 116.34,143.10 116.67,143.45 117.00,143.81 117.33,144.16 117.66,144.51 117.98,144.87 118.31,145.22 118.64,145.57 118.97,145.93 119.29,146.28 119.62,146.63 119.95,146.99 120.28,147.34 120.61,147.69 120.93,148.05 121.26,148.40 121.59,148.75 121.92,149.11 122.24,149.46 122.57,149.81 122.90,150.17 123.23,150.52 123.55,150.87 123.88,151.23 124.21,151.58 124.54,151.93 124.87,152.29 125.19,152.64 125.52,152.99 125.85,153.35 126.18,153.70 126.50,154.05 126.83,154.41 127.16,154.76 127.49,155.11 127.82,155.47 128.14,155.82 128.47,156.17 128.80,156.53 129.13,156.88 129.45,157.23 129.78,157.59 130.11,157.94 130.44,158.29 130.76,158.65 131.09,159.00 131.42,159.35 131.75,159.71 132.08,160.06 132.40,160.41 132.73,160.77 133.06,161.12 133.39,161.47 133.71,161.83 134.04,162.18 134.37,162.53 134.70,162.89 135.03,163.24 135.35,163.59 135.68,163.95 136.01,164.30 136.34,164.65 136.66,165.01 136.99,165.36 137.32,165.71 137.65,166.07 137.97,166.42 138.30,166.77 138.63,167.13 138.96,167.48 139.29,167.83 139.61,168.19 139.94,168.54 140.27,168.89 140.60,169.25 140.92,169.60 141.25,169.95 141.58,170.31 141.91,170.66 142.24,171.01 142.56,171.37 142.89,171.72 143.22,172.07 143.55,172.43 143.87,172.78 144.20,173.13 144.53,173.49 144.86,173.84 145.18,174.19 145.51,174.55 145.84,174.90 146.17,175.25 146.50,175.61 146.82,175.96 147.15,176.31 147.48,176.67 147.81,177.02 148.13,177.37 148.46,177.73 148.79,178.08 149.12,178.43 149.45,178.79 149.77,179.14 150.10,179.49 150.43,179.85 150.76,180.20 151.08,180.55 151.41,180.91 151.74,181.26 152.07,181.61 152.39,181.97 152.72,182.32 153.05,182.67 153.38,183.03 153.71,183.38 154.03,183.73 154.36,184.09 154.69,184.44 155.02,184.79 155.34,185.15 155.67,185.50 156.00,185.85 156.33,186.21 156.66,186.56 156.98,186.91 157.31,187.27 157.64,187.62 157.97,187.97 158.29,188.33 158.62,188.68 158.95,189.03 159.28,189.39 159.61,189.74 159.93,190.09 160.26,190.45 160.59,190.80 160.92,191.15 161.24,191.51 161.57,191.86 161.90,192.21 162.23,192.57 162.55,192.92 162.88,193.27 163.21,193.63 163.54,193.98 163.87,194.33 164.19,194.69 164.52,195.04 164.85,195.39 165.18,195.75 165.50,196.10 165.83,196.45 166.16,196.81 166.49,197.16 166.82,197.51 167.14,197.87 167.47,198.22 167.80,198.57 168.13,198.93 168.45,199.28 168.78,199.63 169.11,199.99 169.44,200.34 169.76,200.69 170.09,201.05 170.42,201.40 170.75,201.75 171.08,202.11 171.40,202.46 171.73,202.81 172.06,203.17 172.39,203.52 172.71,203.87 173.04,204.23 173.37,204.58 173.70,204.93 174.03,205.29 174.35,205.64 174.68,205.99 175.01,206.35 175.34,206.70 175.66,207.05 175.99,207.41 176.32,207.76 176.65,208.11 176.97,208.47 177.30,208.82 177.63,209.17 177.96,209.53 178.29,209.88 178.61,210.23 178.94,210.59 179.27,210.94 179.60,211.29 179.92,211.65 180.25,212.00 180.58,212.35 180.91,212.71 181.24,213.06 181.56,213.41 181.89,213.77 182.22,214.12 182.55,214.47 182.87,214.83 183.20,215.18 183.53,215.53 183.86,215.89 184.18,216.24 184.51,216.59 184.84,216.95 185.17,217.30 185.50,217.65 185.82,218.01 186.15,218.36 186.48,218.71 186.81,219.07 187.13,219.42 187.46,219.77 187.79,220.13 188.12,220.48 188.45,220.83 188.77,221.19 189.10,221.54 189.43,221.89 189.76,222.25 190.08,222.60 190.41,222.95 190.74,223.31 191.07,223.66 191.39,224.01 191.72,224.37 192.05,224.72 192.38,225.07 192.71,225.43 193.03,225.78 193.36,226.13 193.69,226.49 194.02,226.84 194.34,227.19 194.67,227.55 195.00,227.90 195.33,228.25 195.66,228.61 195.98,228.96 196.31,229.31 196.64,229.67 196.97,230.02 197.29,230.37 197.62,230.73 197.95,231.08 198.28,231.43 198.61,231.79 198.93,232.14 199.26,232.49 199.59,232.85 199.92,233.20 200.24,233.55 200.57,233.91 200.90,234.26 201.23,234.61 201.55,234.97 201.88,235.32 202.21,235.67 202.54,236.03 202.87,236.38 203.19,236.73 203.52,237.09 203.85,237.44 204.18,237.79 204.50,238.15 204.83,238.50 205.16,238.85 205.49,239.21 205.82,239.56 206.14,239.91 206.47,240.27 206.80,240.62 207.13,240.97 207.45,241.33 207.78,241.68 208.11,242.03 208.44,242.39 208.76,242.74 209.09,243.09 209.42,243.45 209.75,243.80 210.08,244.15 210.40,244.51 210.73,244.86 211.06,245.21 211.39,245.57 211.71,245.92 212.04,246.27 212.37,246.63 212.70,246.98 213.03,247.33 213.35,247.69 213.68,248.04 214.01,248.39 214.34,248.75 214.66,249.10 214.99,249.45 215.32,249.81 215.65,250.16 215.97,250.51 216.30,250.87 216.63,251.22 216.96,251.57 217.29,251.93 217.61,252.28 217.94,252.63 218.27,252.99 218.60,253.34 218.92,253.69 219.25,254.05 219.58,254.40 219.91,254.75 220.24,255.11 220.56,255.46 220.89,255.81 221.22,256.17 221.55,256.52 221.87,256.87 222.20,257.23 222.53,257.58 222.86,257.93 223.18,258.29 223.51,258.64 223.84,258.99 224.17,259.35 224.50,259.70 224.82,260.05 225.15,260.41 225.48,260.76 225.81,261.11 226.13,261.47 226.46,261.82 226.79,262.17 227.12,262.53 227.45,262.88 227.77,263.23 228.10,263.59 228.43,263.94 228.76,264.29 229.08,264.65 229.41,265.00 229.74,265.35 230.07,265.71 230.39,266.06 230.72,266.41 231.05,266.77 231.38,267.12 231.71,267.47 232.03,267.83 232.36,268.18 232.69,268.53 233.02,268.89 233.34,269.24 233.67,269.59 234.00,269.95 234.33,270.30 234.66,270.65 234.98,271.01 235.31,271.36 235.64,271.71 235.97,272.07 236.29,272.42 236.62,272.77 236.95,273.13 237.28,273.48 237.61,273.83 237.93,274.19 238.26,274.54 238.59,274.89 238.92,275.25 239.24,275.60 239.57,275.95 239.90,276.31 240.23,276.66 240.55,277.01 240.88,277.37 241.21,277.72 241.54,278.07 241.87,278.43 242.19,278.78 242.52,279.13 242.85,279.49 243.18,279.84 243.50,280.19 243.83,280.55 244.16,280.90 244.49,281.25 244.82,281.61 245.14,281.96 245.47,282.31 245.80,282.67 246.13,282.72 246.45,282.77 246.78,282.82 247.11,282.87 247.44,282.92 247.76,282.97 248.09,283.02 248.42,283.07 248.75,283.12 249.08,283.17 249.40,283.22 249.73,283.27 250.06,283.32 250.39,283.37 250.71,283.42 251.04,283.47 251.37,283.52 251.70,283.57 252.03,283.62 252.35,283.67 252.68,283.72 253.01,283.77 253.34,283.82 253.66,283.87 253.99,283.92 254.32,283.97 254.65,284.02 254.97,284.08 255.30,284.13 255.63,284.18 255.96,284.23 256.29,284.28 256.61,284.33 256.94,284.38 257.27,284.43 257.60,284.48 257.92,284.53 258.25,284.58 258.58,284.63 258.91,284.68 259.24,284.73 259.56,284.78 259.89,284.83 260.22,284.88 260.55,284.93 260.87,284.98 261.20,285.03 261.53,285.08 261.86,285.13 262.18,285.18 262.51,285.23 262.84,285.28 263.17,285.33 263.50,285.38 263.82,285.43 264.15,285.48 264.48,285.53 264.81,285.58 265.13,285.63 265.46,285.68 265.79,285.74 266.12,285.79 266.45,285.84 266.77,285.89 267.10,285.94 267.43,285.99 267.76,286.04 268.08,286.09 268.41,286.14 268.74,286.19 269.07,286.24 269.39,286.29 269.72,286.34 270.05,286.39 270.38,286.44 270.71,286.49 271.03,286.54 271.36,286.59 271.69,286.64 272.02,286.69 272.34,286.74 272.67,286.79 273.00,286.84 273.33,286.89 273.66,286.94 273.98,286.99 274.31,287.04 274.64,287.09 274.97,287.14 275.29,287.19 275.62,287.24 275.95,287.29 276.28,287.34 276.61,287.40 276.93,287.45 277.26,287.50 277.59,287.55 277.92,287.60 278.24,287.65 278.57,287.70 278.90,287.75 279.23,287.80 279.55,287.85 279.88,287.90 280.21,287.95 280.54,288.00 280.87,288.05 281.19,288.10 281.52,288.15 281.85,288.20 282.18,288.25 282.50,288.30 282.83,288.35 283.16,288.40 283.49,288.45 283.82,288.50 284.14,288.55 284.47,288.60 284.80,288.65 285.13,288.70 285.45,288.75 285.78,288.80 286.11,288.85 286.44,288.90 286.76,288.95 287.09,289.00 287.42,289.06 287.75,289.11 288.08,289.16 288.40,289.21 288.73,289.26 289.06,289.31 289.39,289.36 289.71,289.41 290.04,289.46 290.37,289.51 290.70,289.56 291.03,289.61 291.35,289.66 291.68,289.71 292.01,289.76 292.34,289.81 292.66,289.86 292.99,289.91 293.32,289.96 293.65,290.01 293.97,290.06 294.30,290.11 294.63,290.16 294.96,290.21 295.29,290.26 295.61,290.31 295.94,290.36 296.27,290.41 296.60,290.46 296.92,290.51 297.25,290.56 297.58,290.61 297.91,290.66 298.24,290.72 298.56,290.77 298.89,290.82 299.22,290.87 299.55,290.92 299.87,290.97 300.20,291.02 300.53,291.07 300.86,291.12 301.18,291.17 301.51,291.22 301.84,291.27 302.17,291.32 302.50,291.37 302.82,291.42 303.15,291.47 303.48,291.52 303.81,291.57 304.13,291.62 304.46,291.67 304.79,291.72 305.12,291.77 305.45,291.82 305.77,291.87 306.10,291.92 306.43,291.97 306.76,292.02 307.08,292.07 307.41,292.12 307.74,292.17 308.07,292.22 308.39,292.27 308.72,292.32 309.05,292.38 309.38,292.43 309.71,292.48 310.03,292.53 310.36,292.58 310.69,292.63 311.02,292.68 311.34,292.73 311.67,292.78 312.00,292.83 312.33,292.88 312.66,292.93 312.98,292.98 313.31,293.03 313.64,293.08 313.97,293.13 314.29,293.18 314.62,293.23 314.95,293.28 315.28,293.33 315.61,293.38 315.93,293.43 316.26,293.48 316.59,293.53 316.92,293.58 317.24,293.63 317.57,293.68 317.90,293.73 318.23,293.78 318.55,293.83 318.88,293.88 319.21,293.93 319.54,293.98 319.87,294.04 320.19,294.09 320.52,294.14 320.85,294.19 321.18,294.24 321.50,294.29 321.83,294.34 322.16,294.39 322.49,294.44 322.82,294.49 323.14,294.54 323.47,294.59 323.80,294.64 324.13,294.69 324.45,294.74 324.78,294.79 325.11,294.84 325.44,294.89 325.76,294.94 326.09,294.99 326.42,295.04 326.75,295.09 327.08,295.14 327.40,295.19 327.73,295.24 328.06,295.29 328.39,295.34 328.71,295.39 329.04,295.44 329.37,295.49 329.70,295.54 330.03,295.59 330.35,295.64 330.68,295.70 331.01,295.75 331.34,295.80 331.66,295.85 331.99,295.90 332.32,295.95 332.65,296.00 332.97,296.05 333.30,296.10 333.63,296.15 333.96,296.20 334.29,296.25 334.61,296.30 334.94,296.35 335.27,296.40 335.60,296.45 335.92,296.50 336.25,296.55 336.58,296.60 336.91,296.65 337.24,296.70 337.56,296.75 337.89,296.80 338.22,296.85 338.55,296.90 338.87,296.95 339.20,297.00 339.53,297.05 339.86,297.10 340.18,297.15 340.51,297.20 340.84,297.25 341.17,297.30 341.50,297.36 341.82,297.41 342.15,297.46 342.48,297.51 342.81,297.56 343.13,297.61 343.46,297.66 343.79,297.71 344.12,297.76 344.45,297.81 344.77,297.86 345.10,297.91 345.43,297.96 345.76,298.01 346.08,298.06 346.41,298.11 346.74,298.16 347.07,298.21 347.39,298.26 347.72,298.31 348.05,298.36 348.38,298.41 348.71,298.46 349.03,298.51 349.36,298.56 349.69,298.61 350.02,298.66 350.34,298.71 350.67,298.76 351.00,298.81 351.33,298.86 351.66,298.91 351.98,298.96 352.31,299.02 352.64,299.07 352.97,299.12 353.29,299.17 353.62,299.22 353.95,299.27 354.28,299.32 354.61,299.37 354.93,299.42 355.26,299.47 355.59,299.52 355.92,299.57 356.24,299.62 356.57,299.67 356.90,299.72 357.23,299.77 357.55,299.82 357.88,299.87 358.21,299.92 358.54,299.97 358.87,300.02 359.19,300.07 359.52,300.12 359.85,300.17 360.18,300.22 360.50,300.27 360.83,300.32 361.16,300.37 361.49,300.42 361.82,300.47 362.14,300.52 362.47,300.57 362.80,300.62 363.13,300.68 363.45,300.73 363.78,300.78 364.11,300.83 364.44,300.88 364.76,300.93 365.09,300.98 365.42,301.03 365.75,301.08 366.08,301.13 366.40,301.18 366.73,301.23 367.06,301.28 367.39,301.33 367.71,301.38 368.04,301.43 368.37,301.48 368.70,301.53 369.03,301.58 369.35,301.63 369.68,301.68 370.01,301.73 370.34,301.78 370.66,301.83 370.99,301.88 371.32,301.93 371.65,301.98 371.97,302.03 372.30,302.08 372.63,302.13 372.96,302.18 373.29,302.23 373.61,302.28 373.94,302.34 374.27,302.39 374.60,302.44 374.92,302.49 375.25,302.54 375.58,302.59 375.91,302.64 376.24,302.69 376.56,302.74 376.89,302.79 377.22,302.84 377.55,302.89 377.87,302.94 378.20,302.99 378.53,303.04 378.86,303.09 379.18,303.14 379.51,303.19 379.84,303.24 380.17,303.29 380.50,303.34 380.82,303.39 381.15,303.44 381.48,303.49 381.81,303.54 382.13,303.59 382.46,303.64 382.79,303.69 383.12,303.74 383.45,303.79 383.77,303.84 384.10,303.89 384.43,303.94 384.76,304.00 385.08,304.05 385.41,304.10 385.74,304.15 386.07,304.20 386.39,304.25 386.72,304.30 387.05,304.35 387.38,304.40 387.71,304.45 388.03,304.50 388.36,304.55 388.69,304.60 389.02,304.65 389.34,304.70 389.67,304.75 390.00,304.80 390.33,304.85 390.66,304.90 390.98,304.95 391.31,305.00 391.64,305.05 391.97,305.10 392.29,305.15 392.62,305.20 392.95,305.25 393.28,305.30 393.61,305.35 393.93,305.40 394.26,305.45 394.59,305.50 394.92,305.55 395.24,305.60 395.57,305.66 395.90,305.71 396.23,305.76 396.55,305.81 396.88,305.86 397.21,305.91 397.54,305.96 397.87,306.01 398.19,306.06 398.52,306.11 398.85,306.16 399.18,306.21 399.50,306.26 399.83,306.31 400.16,306.36 400.49,306.41 400.82,306.46 401.14,306.51 401.47,306.56 401.80,306.61 402.13,306.66 402.45,306.71 402.78,306.76 403.11,306.81 403.44,306.86 403.76,306.91 404.09,306.96 404.42,307.01 404.75,307.06 405.08,307.11 405.40,307.16 405.73,307.21 406.06,307.26 406.39,307.32 406.71,307.37 407.04,307.42 407.37,307.47 407.70,307.52 408.03,307.57 408.35,307.62 408.68,307.67 409.01,307.72 409.34,307.77 409.66,307.82 409.99,307.87 410.32,307.92 410.65,307.97 410.97,308.02 411.30,308.07 411.63,308.12 411.96,308.17 412.29,308.22 412.61,308.27 412.94,308.32 413.27,308.37 413.60,308.42 413.92,308.47 414.25,308.52 414.58,308.57 414.91,308.62 415.24,308.67 415.56,308.72 415.89,308.77 416.22,308.82 416.55,308.87 416.87,308.92 417.20,308.98 417.53,309.03 417.86,309.08 418.18,309.13 418.51,309.18 418.84,309.23 419.17,309.28 419.50,309.33 419.82,309.38 420.15,309.43 420.48,309.48 420.81,309.53 421.13,309.58 421.46,309.63 421.79,309.68 422.12,309.73 422.45,309.78 422.77,309.83 423.10,309.88 423.43,309.93 423.76,309.98 424.08,310.03 424.41,310.08 424.74,310.13 425.07,310.18 425.39,310.23 425.72,310.28 426.05,310.33 426.38,310.38 426.71,310.43 427.03,310.48 427.36,310.53 427.69,310.58 428.02,310.64 428.34,310.69 428.67,310.74 429.00,310.79 429.33,310.84 429.66,310.89 429.98,310.94 430.31,310.99 430.64,311.04 430.97,311.09 431.29,311.14 431.62,311.19 431.95,311.24 432.28,311.29 432.61,311.34 432.93,311.39 433.26,311.44 433.59,311.49 433.92,311.54 434.24,311.59 434.57,311.64 434.90,311.69 435.23,311.74 435.55,311.79 435.88,311.84 436.21,311.89 436.54,311.94 436.87,311.99 437.19,312.04 437.52,312.09 437.85,312.14 438.18,312.19 438.50,312.24 438.83,312.30 439.16,312.35 439.49,312.40 439.82,312.45 440.14,312.50 440.47,312.55 440.80,312.60 441.13,312.65 441.45,312.70 441.78,312.75 442.11,312.80 442.44,312.85 442.76,312.90 443.09,312.95 443.42,313.00 443.75,313.05 444.08,313.10 444.40,313.15 444.73,313.20 445.06,313.25 445.39,313.30 445.71,313.35 446.04,313.40 446.37,313.45 446.70,313.50 447.03,313.55 447.35,313.60 447.68,313.65 448.01,313.70 448.34,313.75 448.66,313.80 448.99,313.85 449.32,313.90 449.65,313.96 449.97,314.01 450.30,314.06 450.63,314.11 450.96,314.16 451.29,314.21 451.61,314.26 451.94,314.31 452.27,314.36 452.60,314.41 452.92,314.46 453.25,314.51 453.58,314.56 453.91,314.61 454.24,314.66 454.56,314.71 454.89,314.76 455.22,314.81 455.55,314.86 455.87,314.91 456.20,314.96 456.53,315.01 456.86,315.06 457.18,315.11 457.51,315.16 457.84,315.21 458.17,315.26 458.50,315.31 458.82,315.36 459.15,315.41 459.48,315.46 459.81,315.51 460.13,315.56 460.46,315.62 460.79,315.67 461.12,315.72 461.45,315.77 461.77,315.82 462.10,315.87 462.43,315.92 462.76,315.97 463.08,316.02 463.41,316.07 463.74,316.12 464.07,316.17 464.39,316.22 464.72,316.27 465.05,316.32 465.38,316.37 465.71,316.42 466.03,316.47 466.36,316.52 466.69,316.57 467.02,316.62 467.34,316.67 467.67,316.72 468.00,316.77 468.33,316.82 468.66,316.87 468.98,316.92 469.31,316.97 469.64,317.02 469.97,317.07 470.29,317.12 470.62,317.17 470.95,317.22 471.28,317.28 471.61,317.33 471.93,317.38 472.26,317.43 472.59,317.48 472.92,317.53 473.24,317.58 473.57,317.63 473.90,317.68 474.23,317.73 474.55,317.78 474.88,317.83 475.21,317.88 475.54,317.93 475.87,317.98 476.19,318.03 476.52,318.08 476.85,318.13 477.18,318.18 477.50,318.23 477.83,318.28 478.16,318.33 478.49,318.38 478.82,318.43 479.14,318.48 479.47,318.53 479.80,318.58 480.13,318.63 480.45,318.68 480.78,318.73 481.11,318.78 481.44,318.83 481.76,318.88 482.09,318.94 482.42,318.99 482.75,319.04 483.08,319.09 483.40,319.14 483.73,319.19 484.06,319.24 484.39,319.29 484.71,319.34 485.04,319.39 485.37,319.44 485.70,319.49 486.03,319.54 486.35,319.59 486.68,319.64 487.01,319.69 487.34,319.74 487.66,319.79 487.99,319.84 488.32,319.89 488.65,319.94 488.97,319.99 489.30,320.04 489.63,320.09 489.96,320.14 490.29,320.19 490.61,320.24 490.94,320.29 491.27,320.34 491.60,320.39 491.92,320.44 492.25,320.49 492.58,320.54 492.91,320.60 493.24,320.65 493.56,320.70 493.89,320.75 494.22,320.80 494.55,320.85 494.87,320.90 495.20,320.95 495.53,321.00 495.86,321.05 496.18,321.10 496.51,321.15 496.84,321.20 497.17,321.25 497.50,321.30 497.82,321.35 498.15,321.40 498.48,321.45 498.81,321.50 499.13,321.55 499.46,321.60 499.79,321.65 500.12,321.70 500.45,321.75 500.77,321.80 501.10,321.85 501.43,321.90 501.76,321.95 502.08,322.00 502.41,322.05 502.74,322.10 503.07,322.15 503.39,322.20 503.72,322.26 504.05,322.31 504.38,322.36 504.71,322.41 505.03,322.46 505.36,322.51 505.69,322.56 506.02,322.61 506.34,322.66 506.67,322.71 507.00,322.76 507.33,322.81 507.66,322.86 507.98,322.91 508.31,322.96 508.64,323.01 508.97,323.06 509.29,323.11 509.62,323.16 509.95,323.21 510.28,323.26 510.61,323.31 510.93,323.36 511.26,323.41 511.59,323.46 511.92,323.51 512.24,323.56 512.57,323.61 512.90,323.66 513.23,323.71 513.55,323.76 513.88,323.81 514.21,323.86 514.54,323.92 514.87,323.97 515.19,324.02 515.52,324.07 515.85,324.12 516.18,324.17 516.50,324.22 516.83,324.27 517.16,324.32 517.49,324.37 517.82,324.42 518.14,324.47 518.47,324.52 518.80,324.57 519.13,324.62 519.45,324.67 519.78,324.72 520.11,324.77 520.44,324.82 520.76,324.87 521.09,324.92 521.42,324.97 521.75,325.02 522.08,325.07 522.40,325.12 522.73,325.17 523.06,325.22 523.39,325.27 523.71,325.32 524.04,325.37 524.37,325.42 524.70,325.47 525.03,325.52 525.35,325.58 525.68,325.63 526.01,325.68 526.34,325.73 526.66,325.78 526.99,325.83 527.32,325.88 527.65,325.93 527.97,325.98 528.30,326.03 528.63,326.08 528.96,326.13 529.29,326.18 529.61,326.23 529.94,326.28 530.27,326.33 530.60,326.38 530.92,326.43 531.25,326.48 531.58,326.53 531.91,326.58 532.24,326.63 532.56,326.68 532.89,326.73 533.22,326.78 533.55,326.83 533.87,326.88 534.20,326.93 534.53,326.98 534.86,327.03 535.18,327.08 535.51,327.13 535.84,327.18 536.17,327.24 536.50,327.29 536.82,327.34 537.15,327.39 537.48,327.44 537.81,327.49 538.13,327.54 538.46,327.59 538.79,327.64 539.12,327.69 539.45,327.74 539.77,327.79 540.10,327.84 540.43,327.89 540.76,327.94 541.08,327.99 541.41,328.04 541.74,328.09 542.07,328.14 542.39,328.19 542.72,328.24 543.05,328.29 543.38,328.34 543.71,328.39 544.03,328.44 544.36,328.49 544.69,328.54 545.02,328.59 545.34,328.64 545.67,328.69 546.00,328.74 546.33,328.79 546.66,328.84 546.98,328.90 547.31,328.95 547.64,329.00 547.97,329.05 548.29,329.10 548.62,329.15 548.95,329.20 549.28,329.25 549.61,329.30 549.93,329.35 550.26,329.40 550.59,329.45 550.92,329.50 551.24,329.55 551.57,329.60 551.90,329.65 552.23,329.70 552.55,329.75 552.88,329.80 553.21,329.85 553.54,329.90 553.87,329.95 554.19,330.00 554.52,330.05 554.85,330.10 555.18,330.15 555.50,330.20 555.83,330.25 556.16,330.30 556.49,330.35 556.82,330.40 557.14,330.45 557.47,330.50 557.80,330.56 558.13,330.61 558.45,330.66 558.78,330.71 559.11,330.76 559.44,330.81 559.76,330.86 560.09,330.91 560.42,330.96 560.75,331.01 561.08,331.06 561.40,331.11 561.73,331.16 562.06,331.21 562.39,331.26 562.71,331.31 563.04,331.36 563.37,331.41 563.70,331.46 564.03,331.51 564.35,331.56 564.68,331.61 565.01,331.66 565.34,331.71 565.66,331.76 565.99,331.81 566.32,331.86 566.65,331.91 566.97,331.96 567.30,332.01 567.63,332.06 567.96,332.11 568.29,332.16 568.61,332.22 568.94,332.27 569.27,332.32 569.60,332.37 569.92,332.42 570.25,332.47 570.58,332.52 570.91,332.57 571.24,332.62 571.56,332.67 571.89,332.72 572.22,332.77 572.55,332.82 572.87,332.87 573.20,332.92 573.53,332.97 573.86,333.02 574.18,333.07 574.51,333.12 574.84,333.17 575.17,333.22 575.50,333.27 575.82,333.32 576.15,333.37 576.48,333.42 576.81,333.47 577.13,333.52 577.46,333.57 577.79,333.62 578.12,333.67 578.45,333.72 578.77,333.77 579.10,333.82 579.43,333.88 579.76,333.93 580.08,333.98 580.41,334.03 580.74,334.08 581.07,334.13 581.39,334.18 581.72,334.23 582.05,334.28 582.38,334.33 582.71,334.38 583.03,334.43 583.36,334.48 583.69,334.53 584.02,334.58 584.34,334.63 584.67,334.68 585.00,334.73 585.33,334.78 585.66,334.83 585.98,334.88 586.31,334.93 586.64,334.98 586.97,335.03 587.29,335.08 587.62,335.13 587.95,335.18 588.28,335.23 588.61,335.28 588.93,335.33 589.26,335.38 589.59,335.43 589.92,335.48 590.24,335.54 590.57,335.59 590.90,335.64 591.23,335.69 591.55,335.74 591.88,335.79 592.21,335.84 592.54,335.89 592.87,335.94 593.19,335.99 593.52,336.04 593.85,336.09 594.18,336.14 594.50,336.19 594.83,336.24 595.16,336.29 595.49,336.34 595.82,336.39 596.14,336.44 596.47,336.49 596.80,336.54 597.13,336.59 597.45,336.64 597.78,336.69 598.11,336.74 598.44,336.79 598.76,336.84 599.09,336.89 599.42,336.94 599.75,336.99 600.08,337.04 600.40,337.09 600.73,337.14 601.06,337.20 601.39,337.25 601.71,337.30 602.04,337.35 602.37,337.40 602.70,337.45 603.03,337.50 603.35,337.55 603.68,337.60 604.01,337.65 604.34,337.70 604.66,337.75 604.99,337.80 605.32,337.85 605.65,337.90 605.97,337.95 606.30,338.00 606.63,338.05 606.96,338.10 607.29,338.15 607.61,338.20 607.94,338.25 608.27,338.30 608.60,338.35 608.92,338.40 609.25,338.45 609.58,338.50 609.91,338.55 610.24,338.60 610.56,338.65 610.89,338.70 611.22,338.75 611.55,338.80 611.87,338.86 612.20,338.91 612.53,338.96 612.86,339.01 613.18,339.06 613.51,339.11 613.84,339.16 614.17,339.21 614.50,339.26 614.82,339.31 615.15,339.36 615.48,339.41 615.81,339.46 616.13,339.51 616.46,339.56 616.79,339.61 617.12,339.66 617.45,339.71 617.77,339.76 618.10,339.81 618.43,339.86 618.76,339.91 619.08,339.96 619.41,340.01 619.74,340.06 620.07,340.11 620.39,340.16 620.72,340.21 621.05,340.26 621.38,340.31 621.71,340.36 622.03,340.41 622.36,340.46 622.69,340.52 623.02,340.57 623.34,340.62 623.67,340.67 624.00,340.72 624.33,340.77 624.66,340.82 624.98,340.87 625.31,340.92 625.64,340.97 625.97,341.02 626.29,341.07 626.62,341.12 626.95,341.17 627.28,341.22 627.61,341.27 627.93,341.32 628.26,341.37 628.59,341.42 628.92,341.47 629.24,341.52 629.57,341.57 629.90,341.62 630.23,341.67 630.55,341.72 630.88,341.77 631.21,341.82 631.54,341.87 631.87,341.92 632.19,341.97 632.52,342.02 632.85,342.07 633.18,342.12 633.50,342.18 633.83,342.23 634.16,342.28 634.49,342.33 634.82,342.38 635.14,342.43 635.47,342.48 635.80,342.53 636.13,342.58 636.45,342.63 636.78,342.68 637.11,342.73 637.44,342.78 637.76,342.83 638.09,342.88 638.42,342.93 638.75,342.98 639.08,343.03 639.40,343.08 639.73,343.13 640.06,343.18 640.39,343.23 640.71,343.28 641.04,343.33 641.37,343.38 641.70,343.43 642.03,343.48 642.35,343.53 642.68,343.58 643.01,343.63 643.34,343.68 643.66,343.73 643.99,343.78 644.32,343.84 644.65,343.89 644.97,343.94 645.30,343.99 645.63,344.04 645.96,344.09 646.29,344.14 646.61,344.19 646.94,344.24 647.27,344.29 647.60,344.34 647.92,344.39 648.25,344.44 648.58,344.49 648.91,344.54 649.24,344.59 649.56,344.64 649.89,344.69 650.22,344.74 650.55,344.79 650.87,344.84 651.20,344.89 651.53,344.94 651.86,344.99 652.18,345.04 652.51,345.09 652.84,345.14 653.17,345.19 653.50,345.24 653.82,345.29 654.15,345.34 654.48,345.39 654.81,345.44 655.13,345.50 655.46,345.55 655.79,345.60 656.12,345.65 656.45,345.70 656.77,345.75 657.10,345.80 657.43,345.85 657.76,345.90 658.08,345.95 658.41,346.00 658.74,346.05 659.07,346.10 659.39,346.15 659.72,346.20 660.05,346.25 660.38,346.30 660.71,346.35 661.03,346.40 661.36,346.45 661.69,346.50 662.02,346.55 662.34,346.60 662.67,346.65 663.00,346.70 663.33,346.75 663.66,346.80 663.98,346.85 664.31,346.90 664.64,346.95 664.97,347.00 665.29,347.05 665.62,347.10 665.95,347.16 666.28,347.21 666.61,347.26 666.93,347.31 667.26,347.36 667.59,347.41 667.92,347.46 668.24,347.51 668.57,347.56 668.90,347.61 669.23,347.66 669.55,347.71 669.88,347.76 670.21,347.81 670.54,347.86 670.87,347.91 671.19,347.96 671.52,348.01 671.85,348.06 672.18,348.11 672.50,348.16 672.83,348.21 673.16,348.26 673.49,348.31 673.82,348.36 674.14,348.41 674.47,348.46 674.80,348.51 675.13,348.56 675.45,348.61 675.78,348.66 676.11,348.71 676.44,348.76 676.76,348.82 677.09,348.87 677.42,348.92 677.75,348.97 678.08,349.02 678.40,349.07 678.73,349.12 679.06,349.17 679.39,349.22 679.71,349.27 680.04,349.32 680.37,349.37 680.70,349.42 681.03,349.47 681.35,349.52 681.68,349.57 682.01,349.62 682.34,349.67 682.66,349.72 682.99,349.77 683.32,349.82 683.65,349.87 683.97,349.92 684.30,349.97 684.63,350.02 684.96,350.07 685.29,350.12 685.61,350.17 685.94,350.22 686.27,350.27 686.60,350.32 686.92,350.37 687.25,350.42 687.58,350.48 687.91,350.53 688.24,350.58 688.56,350.63 688.89,350.68 689.22,350.73 689.55,350.78 689.87,350.83 690.20,350.88 690.53,350.93 690.86,350.98 691.18,351.03 691.51,351.08 691.84,351.13 692.17,351.18 692.50,351.23 692.82,351.28 693.15,351.33 693.48,351.38 693.81,351.43 694.13,351.48 694.46,351.53 694.79,351.58 695.12,351.63 695.45,351.68 695.77,351.73 696.10,351.78 696.43,351.83 696.76,351.88 697.08,351.93 697.41,351.98 697.74,352.03 698.07,352.08 698.39,352.14 698.72,352.19 699.05,352.24 699.38,352.29 699.71,352.34 700.03,352.39 700.36,352.44 700.69,352.49 701.02,352.54 701.34,352.59 701.67,352.64 702.00,352.69 702.33,352.74 702.66,352.79 702.98,352.84 703.31,352.89 703.64,352.94 703.97,352.99 704.29,353.04 704.62,353.09 704.95,353.14 705.28,353.19 705.61,353.24 705.93,353.29 706.26,353.34 706.59,353.39 706.92,353.44 707.24,353.49 707.57,353.54 707.90,353.59 708.23,353.64 708.55,353.69 708.88,353.74 709.21,353.80 709.54,353.85 709.87,353.90 710.19,353.95 710.52,354.00 710.85,354.05 711.18,354.10 711.50,354.15 711.83,354.20 712.16,354.25 712.49,354.30 712.82,354.35 713.14,354.40 713.47,354.45 713.80,354.50 714.13,354.55 714.45,354.60 714.78,354.65 715.11,354.70 715.44,354.75 715.76,354.80 716.09,354.85 716.42,354.90 716.75,354.95 717.08,355.00 717.40,355.05 717.73,355.10 718.06,355.15 718.39,355.20 718.71,355.25 719.04,355.30 719.37,355.35 719.70,355.40 720.03,355.46 720.35,355.51 720.68,355.56 721.01,355.61 721.34,355.66 721.66,355.71 721.99,355.76 722.32,355.81 722.65,355.86 722.97,355.91 723.30,355.96 723.63,356.01 723.96,356.06 724.29,356.11 724.61,356.16 724.94,356.21 725.27,356.26 725.60,356.31 725.92,356.36 726.25,356.41 726.58,356.46 726.91,356.51 727.24,356.56 727.56,356.61 727.89,356.66 728.22,356.71 728.55,356.76 728.87,356.81 729.20,356.86 729.53,356.91 729.86,356.96 730.18,357.01 730.51,357.06 730.84,357.12 731.17,357.17 731.50,357.22 731.82,357.27 732.15,357.32 732.48,357.37 732.81,357.42 733.13,357.47 733.46,357.52 733.79,357.57 734.12,357.62 734.45,357.67 734.77,357.72 735.10,357.77 735.43,357.82 735.76,357.87 736.08,357.92 736.41,357.97 736.74,358.02 737.07,358.07 737.39,358.12 737.72,358.17 738.05,358.22 738.38,358.27 738.71,358.32 739.03,358.37 739.36,358.42 739.69,358.47 740.02,358.52 740.34,358.57 740.67,358.62 741.00,358.67 741.33,358.72 741.66,358.78 741.98,358.83 742.31,358.88 742.64,358.93 742.97,358.98 743.29,359.03 743.62,359.08 743.95,359.13 744.28,359.18 744.61,359.23 744.93,359.28 745.26,359.33 745.59,359.38 745.92,359.43 746.24,359.48 746.57,359.53 746.90,359.58 747.23,359.63 747.55,359.68 747.88,359.73 748.21,359.78 748.54,359.83 748.87,359.88 749.19,359.93 749.52,359.98 749.85,360.03 750.18,360.08 750.50,360.13 750.83,360.18 751.16,360.23 751.49,360.28 751.82,360.33 752.14,360.38 752.47,360.44 752.80,360.49 753.13,360.54 753.45,360.59 753.78,360.64 754.11,360.69 754.44,360.74 754.76,360.79 755.09,360.84 755.42,360.89 755.75,360.94 756.08,360.99 756.40,361.04 756.73,361.09 757.06,361.14 757.39,361.19 757.71,361.24 758.04,361.29 758.37,361.34 758.70,361.39 759.03,361.44 759.35,361.49 759.68,361.54 760.01,361.59 760.34,361.64 760.66,361.69 760.99,361.74 761.32,361.79 761.65,361.84 761.97,361.89 762.30,361.94 762.63,361.99 762.96,362.04 763.29,362.10 763.61,362.15 763.94,362.20 764.27,362.25 764.60,362.30 764.92,362.35 765.25,362.40 765.58,362.45 765.91,362.50 766.24,362.55 766.56,362.60 766.89,362.65 767.22,362.70 767.55,362.75 767.87,362.80 768.20,362.85 768.53,362.90 768.86,362.95 769.18,363.00 769.51,363.05 769.84,363.10 770.17,363.15 770.50,363.20 770.82,363.25 771.15,363.30 771.48,363.35 771.81,363.40 772.13,363.45 772.46,363.50 772.79,363.55 773.12,363.60 773.45,363.65 773.77,363.70 774.10,363.76 774.43,363.81 774.76,363.86 775.08,363.91 775.41,363.96 775.74,364.01 776.07,364.06 776.39,364.11 776.72,364.16 777.05,364.21 777.38,364.26 777.71,364.31 778.03,364.36 778.36,364.41 778.69,364.46 779.02,364.51 779.34,364.56 779.67,364.61 780.00,364.66 780.33,364.71 780.66,364.76 780.98,364.81 781.31,364.86 781.64,364.91 781.97,364.96 782.29,365.01 782.62,365.06 782.95,365.11 783.28,365.16 783.61,365.21 783.93,365.26 784.26,365.31 784.59,365.36 784.92,365.42 785.24,365.47 785.57,365.52 785.90,365.57 786.23,365.62 786.55,365.67 786.88,365.72 787.21,365.77 787.54,365.82 787.87,365.87 788.19,365.92 788.52,365.97 788.85,366.02 789.18,366.07 789.50,366.12 789.83,366.17 790.16,366.22 790.49,366.27 790.82,366.32 791.14,366.37 791.47,366.42 791.80,366.47 792.13,366.52 792.45,366.57 792.78,366.62 793.11,366.67 793.44,366.72 793.76,366.77 794.09,366.82 794.42,366.87 794.75,366.92 795.08,366.97 795.40,367.02 795.73,367.08 796.06,367.13 796.39,367.18 796.71,367.23 797.04,367.28 797.37,367.33 797.70,367.38 798.03,367.43 798.35,367.48 798.68,367.53 799.01,367.58 799.34,367.63 799.66,367.68 799.99,367.73 800.32,367.78 800.65,367.83 800.97,367.88 801.30,367.93 801.63,367.98 801.96,368.03 802.29,368.08 802.61,368.13 802.94,368.18 803.27,368.23 803.60,368.28 803.92,368.33 804.25,368.38 804.58,368.43 804.91,368.48 805.24,368.53 805.56,368.58 805.89,368.63 806.22,368.68 806.55,368.74 806.87,368.79 807.20,368.84 807.53,368.89 807.86,368.94 808.18,368.99 808.51,369.04 808.84,369.09 809.17,369.14 809.50,369.19 809.82,369.24 810.15,369.29 810.48,369.34 810.81,369.39 811.13,369.44 811.46,369.49 811.79,369.54 812.12,369.59 812.45,369.64 812.77,369.69 813.10,369.74 813.43,369.79 813.76,369.84 814.08,369.89 814.41,369.94 814.74,369.99 815.07,370.04 815.39,370.09 815.72,370.14 816.05,370.19 816.38,370.24 816.71,370.29 817.03,370.34 817.36,370.40 817.69,370.45 818.02,370.50 818.34,370.55 818.67,370.60 819.00,370.65"/>
</g>
<text x="317.8" y="446" font-size="11" fill="#666" text-anchor="middle">k=750</text>
<text x="892" y="48" font-size="11" fill="#1f77b4" text-anchor="end">blue solid: ref linear</text>
<text x="892" y="64" font-size="11" fill="#1f77b4" text-anchor="end">blue dash: nnUNet poly 0.9</text>
<text x="892" y="80" font-size="11" fill="#d62728" text-anchor="end">red: proposed long run</text>
<text x="482" y="452" font-size="12" fill="#111" text-anchor="middle">epoch</text>
</svg>